<svg xmlns="http://www.w3.org/2000/svg" viewBox="0 0 163.21 60"><defs><style>.cls-1{fill:#fff;}.cls-2{fill:none;}</style></defs><g id="图层_2" data-name="图层 2"><g id="图层_1-2" data-name="图层 1"><path class="cls-1" d="M90,17.38a19.28,19.28,0,0,1-2.84,8.75,13.14,13.14,0,0,0,4.7,3.66L91.8,30a2.63,2.63,0,0,0-2.21,2.06,11.61,11.61,0,0,1-3.68-4.36,16.6,16.6,0,0,1-7.58,4.46L78.17,32A16,16,0,0,0,85,25.63a28.54,28.54,0,0,1-1.26-5.35,14.07,14.07,0,0,1-2.6,3.23l-.28-.17a28,28,0,0,0,1.71-4.49.72.72,0,0,1-.22,0h-3.5a28.8,28.8,0,0,1-2.17,2.26h1.58l1.15-1.19,2.12,1.84c-.17.17-.41.21-.84.26-.7.41-1.54.93-2.39,1.34l.7.06c-.07.33-.26.48-.72.55v.88c1.3-.17,2.71-.36,4.1-.56l0,.3c-1.1.44-2.47.94-4.14,1.5v3.23c0,1.71-.37,2.62-3.14,2.88a2.72,2.72,0,0,0-.5-1.67,2.87,2.87,0,0,0-1.84-.8v-.3s2.23.13,2.67.13.43-.09.43-.35V26.89c-.91.3-1.91.61-3,.93a.92.92,0,0,1-.58.52l-1.06-2.62c1-.09,2.62-.26,4.61-.52v-2l1.28.11c.34-.48.69-1,1-1.52H76A22.51,22.51,0,0,1,71.05,25l-.22-.23a24.71,24.71,0,0,0,3.47-3H72.22l-.2-.62h2.84a26.07,26.07,0,0,0,1.82-2.26H71.22l-.17-.62h3.59v-2.8H72.09l-.18-.61h2.73V11.92l3.21.26c0,.32-.22.52-.8.61v2.05h.06l1-1.38s.61.5,1.19,1a22.57,22.57,0,0,0,1-2.32l2.84,1.36c-.13.24-.35.37-.89.29a28.26,28.26,0,0,1-2.92,4.42H80l1-1.35s1,.76,1.66,1.43A37.54,37.54,0,0,0,83.89,12l3.49.83c-.06.28-.32.47-.84.49a30.77,30.77,0,0,1-1.09,3.47H88L89.31,15s1.51,1.21,2.4,2c-.06.24-.28.35-.58.35Zm-13,.87h.08c.63-.94,1.2-1.87,1.72-2.8h-1.8Zm8.16-.87a23.85,23.85,0,0,1-1.06,2.21A17.81,17.81,0,0,0,85.78,24a21.37,21.37,0,0,0,1.45-6.65Z"/><path class="cls-1" d="M112.4,12.89s1.51,1.15,2.4,2c0,.23-.28.34-.56.34h-10a29.71,29.71,0,0,1-4.7,2.71c2.42,0,6.35,0,10.57-.09a17.06,17.06,0,0,0-2.14-2.18l.19-.16c7.3,1.13,6,6.16,3.47,4.77a8.53,8.53,0,0,0-1.07-1.82c-2.81.48-6.71,1.06-11.32,1.63l-.09.1,2.84,1h7l1.15-1.32,2.49,1.91a1.46,1.46,0,0,1-.87.45v7.26c0,1.56-.39,2.47-3.31,2.71a2.5,2.5,0,0,0-.52-1.59,3.18,3.18,0,0,0-1.89-.75v-.33s2.19.15,2.71.15c.37,0,.45-.15.45-.43V26.52A51.58,51.58,0,0,1,102.76,29a.84.84,0,0,1-.59.52l-1-2.27a7.67,7.67,0,0,1-4.75,4.94l-.15-.2c2.47-2.29,2.77-5.17,2.77-7.75v-4a1.07,1.07,0,0,1-.49.3l-.94-2.92a3.92,3.92,0,0,0,.83-.22,11.73,11.73,0,0,0,2.79-2.21H96.09l-.18-.63h5.92a15.71,15.71,0,0,0,2-2.75L107.35,13c-.06.24-.35.43-.84.41-.42.37-.89.78-1.43,1.19h6ZM101.57,21.8v1.32c8-.87,7.58,3,5.52,2.64a23.52,23.52,0,0,0-5.52-2.06v.57a10.56,10.56,0,0,1-.29,2.66c1.78-.13,4.9-.52,7.93-1.06V21.8Z"/><path class="cls-1" d="M121.75,20.74a2.27,2.27,0,0,1-1.15,2.68c-1.64.7-2.75-1.38-.93-2.34a2.49,2.49,0,0,0,1.17-2.36l.26,0a9.14,9.14,0,0,1,.54,1.43H122l-.22-7.3,2,.39a17.13,17.13,0,0,0,1.71-1.37l1.74,1.33.06-.07a8.26,8.26,0,0,1,1.67.22,8.76,8.76,0,0,0,.78-1.3l2,1c-.08.19-.3.23-.69.15a6.54,6.54,0,0,1-.74.76c1.09.86.59,2-.43,1.66a5.52,5.52,0,0,0-.72-.78,12.8,12.8,0,0,1-2.27,1.22l0-.07c-.07.18-.26.24-.5.24h-2.21l.06,1.67h.5l.8-1.06s.91.76,1.48,1.34a.5.5,0,0,1-.54.35h-2.24l.07,1.6h9.31l.07-1.6h-1.78l-.17-.63h2l.07-1.67h-1.8l-.2-.61h2l.09-1.69h-2.15l-.17-.62h2.12l1-1.13,2.27,1.73a1.08,1.08,0,0,1-.76.31l-.28,5.69,1.1-1.08L139.15,21c-.18.17-.39.21-.83.23a32.78,32.78,0,0,1-3.12,1.63l-.19-.15c.17-.5.43-1.32.63-2Zm14.39,3.77s1.51,1.25,2.4,2.1c-.06.24-.28.34-.61.34h-7.71v2.26c0,1.77-.39,2.75-3.31,3a3.13,3.13,0,0,0-.54-1.78,3,3,0,0,0-2-.84v-.31s2.45.16,2.93.16c.32,0,.43-.09.43-.37V27h-8.3l-.17-.62h8.47V24.59l1.93.18c.54-.48,1.1-1,1.56-1.5h-7.73l-.2-.63h8.28l1.36-1.3,2.34,2.06a1.27,1.27,0,0,1-.89.26c-.95.37-2.21.85-3.44,1.21-.05.33-.26.48-.72.55v.91h4.55Zm-10.79-9.88s.74.56,1.28,1.08a11.46,11.46,0,0,0,1.62-1.58,11,11,0,0,0-1-.69,1,1,0,0,1-.54,0A18.49,18.49,0,0,1,124,14l0,1.66h.54ZM132,16.79c-.11.22-.35.26-.7.18a6.82,6.82,0,0,1-.84.89c1.1,1,.52,2.25-.59,1.79a4.32,4.32,0,0,0-.65-.91A11.28,11.28,0,0,1,126.54,20l-.17-.33a10.42,10.42,0,0,0,2-1.69,13,13,0,0,0-1.32-1l.22-.22a8.25,8.25,0,0,1,1.84.35,6.55,6.55,0,0,0,.82-1.28Z"/><path class="cls-1" d="M151.71,16c.67,3.92-3.92,2.69-1.93.24a2.41,2.41,0,0,0,1.06-1.84c-.17.19-.45.26-1,.26a45.64,45.64,0,0,1-3,5A6.63,6.63,0,0,1,150,25c0,2.14-.75,3.31-3.07,3.38a5.27,5.27,0,0,0-.24-1.82,1.62,1.62,0,0,0-.89-.5v5.39a2.18,2.18,0,0,1-1.88.74h-.41V12.46l2.57,1h1.28l1.24-1.19,2.29,2.12,0-.22h.29a10.67,10.67,0,0,1,.43,1.22h4a2.06,2.06,0,0,1-.69-.42,5.34,5.34,0,0,0-1-3l.18-.13c4.09.68,3.68,3.1,2.33,3.54H160l1.14-1.15,2.06,2a1.25,1.25,0,0,1-.82.21A26,26,0,0,1,160,18l1.25,1.12c0,.24-.28.35-.58.35H151l-.17-.61h7L159,17.21l.67.54c.15-.48.3-1.19.43-1.76Zm-4.81,9.82a.79.79,0,0,0,.45-.11c.29-.2.44-.59.44-1.28a7.9,7.9,0,0,0-1.43-4.66c.37-1.43.86-4,1.12-5.7h-1.73V25.81Zm15.51,3.42a1,1,0,0,1,.69,1c0,.93-.78,1.45-3.22,1.45h-1.33c-1.79,0-2.05-.5-2.05-2.06V22.84h-1.67c-.28,3.59-1.19,7-7,9.23l-.22-.29c4.21-2.7,4.51-5.8,4.6-8.94H150l-.17-.63h9.42l1.28-1.76s1.49,1.2,2.38,2c-.06.24-.3.35-.6.35h-3.47V29c0,.26,0,.35.41.35h1.58a.41.41,0,0,0,.41-.24,18.5,18.5,0,0,0,.83-2.38h.24Z"/><path class="cls-1" d="M70.84,45.34l.6-.71a2.53,2.53,0,0,0,1.74.77c.79,0,1.23-.37,1.23-.92s-.44-.78-1-1L72.46,43a1.87,1.87,0,0,1-1.33-1.71,1.94,1.94,0,0,1,2.15-1.8,2.76,2.76,0,0,1,2,.83l-.54.65a2.09,2.09,0,0,0-1.43-.58c-.67,0-1.1.32-1.1.84s.52.77,1,1l.9.38a1.83,1.83,0,0,1,1.33,1.77,2,2,0,0,1-2.3,1.9A3.27,3.27,0,0,1,70.84,45.34Z"/><path class="cls-1" d="M76.74,43.75a2.4,2.4,0,0,1,2.41-2.57,2.11,2.11,0,0,1,1.43.56l-.51.66A1.26,1.26,0,0,0,79.2,42c-.82,0-1.4.69-1.4,1.73s.55,1.71,1.37,1.71A1.64,1.64,0,0,0,80.23,45l.42.67a2.37,2.37,0,0,1-1.58.61A2.31,2.31,0,0,1,76.74,43.75Z"/><path class="cls-1" d="M82.15,39.12h1V41l0,1a2.24,2.24,0,0,1,1.58-.77c1,0,1.5.69,1.5,1.93v3.07h-1V43.24c0-.84-.25-1.18-.83-1.18a1.66,1.66,0,0,0-1.19.66v3.46h-1Z"/><path class="cls-1" d="M87.8,43.75a2.31,2.31,0,1,1,2.29,2.55A2.35,2.35,0,0,1,87.8,43.75Zm3.54,0c0-1-.47-1.73-1.25-1.73s-1.24.69-1.24,1.73.48,1.71,1.24,1.71S91.34,44.78,91.34,43.75Z"/><path class="cls-1" d="M93.73,43.75A2.31,2.31,0,1,1,96,46.3,2.35,2.35,0,0,1,93.73,43.75Zm3.54,0c0-1-.48-1.73-1.25-1.73s-1.24.69-1.24,1.73.48,1.71,1.24,1.71S97.27,44.78,97.27,43.75Z"/><path class="cls-1" d="M100,45V39.12h1v6c0,.27.12.37.25.37l.17,0,.13.78a1.73,1.73,0,0,1-.55.08C100.27,46.3,100,45.83,100,45Z"/><path class="cls-1" d="M105.26,43.75a2.31,2.31,0,1,1,2.3,2.55A2.36,2.36,0,0,1,105.26,43.75Zm3.55,0c0-1-.48-1.73-1.25-1.73s-1.24.69-1.24,1.73.48,1.71,1.24,1.71S108.81,44.78,108.81,43.75Z"/><path class="cls-1" d="M113.88,39.93a1.36,1.36,0,0,0-.54-.12c-.43,0-.64.28-.64.87v.63h1v.81h-1v4.06h-1V42.12H111v-.76l.67,0v-.62c0-1,.45-1.69,1.54-1.69a2.16,2.16,0,0,1,.86.17Z"/><path class="cls-1" d="M117.62,39.66h3.86v.86h-2.83v1.81h2.4v.87h-2.4v2.11h2.93v.87h-4Z"/><path class="cls-1" d="M122.91,43.75A2.3,2.3,0,0,1,125,41.18a1.89,1.89,0,0,1,1.32.55l0-.81v-1.8h1v7.06h-.83l-.09-.55h0a2.05,2.05,0,0,1-1.41.67C123.7,46.3,122.91,45.36,122.91,43.75Zm3.36,1.11V42.47A1.55,1.55,0,0,0,125.2,42c-.68,0-1.23.65-1.23,1.7s.43,1.72,1.19,1.72A1.41,1.41,0,0,0,126.27,44.86Z"/><path class="cls-1" d="M129.25,44.37V41.31h1v2.94c0,.84.24,1.17.81,1.17s.77-.21,1.17-.73V41.31h1v4.87h-.83l-.08-.74h0a2,2,0,0,1-1.59.86C129.7,46.3,129.25,45.61,129.25,44.37Z"/><path class="cls-1" d="M135,43.75a2.39,2.39,0,0,1,2.41-2.57,2.07,2.07,0,0,1,1.42.56l-.5.66a1.28,1.28,0,0,0-.88-.38c-.81,0-1.4.69-1.4,1.73s.56,1.71,1.37,1.71a1.66,1.66,0,0,0,1.07-.44l.42.67a2.39,2.39,0,0,1-1.58.61A2.31,2.31,0,0,1,135,43.75Z"/><path class="cls-1" d="M140,44.89c0-1,.89-1.59,2.92-1.81,0-.57-.22-1.07-.93-1.07a2.62,2.62,0,0,0-1.41.5l-.39-.69a3.75,3.75,0,0,1,2-.64c1.22,0,1.77.77,1.77,2.07v2.93h-.83l-.09-.56h0a2.46,2.46,0,0,1-1.55.68A1.35,1.35,0,0,1,140,44.89Zm2.92,0v-1.2c-1.45.18-1.94.55-1.94,1.09s.33.68.77.68A1.75,1.75,0,0,0,142.9,44.92Z"/><path class="cls-1" d="M145.85,44.58V42.12h-.7v-.76l.75,0L146,40h.86v1.35h1.27v.81h-1.27v2.47c0,.59.21.89.71.89a1.37,1.37,0,0,0,.53-.12l.18.76a3,3,0,0,1-1,.18C146.24,46.3,145.85,45.61,145.85,44.58Z"/><path class="cls-1" d="M149.55,39.79a.65.65,0,0,1,1.3,0,.65.65,0,0,1-1.3,0Zm.14,1.52h1v4.87h-1Z"/><path class="cls-1" d="M152.38,43.75a2.31,2.31,0,1,1,2.29,2.55A2.35,2.35,0,0,1,152.38,43.75Zm3.54,0c0-1-.48-1.73-1.25-1.73s-1.24.69-1.24,1.73.48,1.71,1.24,1.71S155.92,44.78,155.92,43.75Z"/><path class="cls-1" d="M158.65,41.31h.83l.08.67h0a2.3,2.3,0,0,1,1.61-.8c1,0,1.5.69,1.5,1.93v3.07h-1V43.24c0-.84-.25-1.18-.82-1.18a1.66,1.66,0,0,0-1.2.66v3.46h-1Z"/><path class="cls-1" d="M30,0A30,30,0,1,0,60,30,30,30,0,0,0,30,0Zm0,58.58A28.57,28.57,0,0,1,9.8,9.8,28.57,28.57,0,1,1,50.2,50.2,28.37,28.37,0,0,1,30,58.58Z"/><path class="cls-1" d="M8.28,15.27a.51.51,0,0,1,.06.82.37.37,0,0,1-.29.16.61.61,0,0,1-.34-.15A.86.86,0,0,0,7.45,16,.78.78,0,0,0,7,16a.24.24,0,0,1,0-.15C7.49,15.21,7.94,15,8.28,15.27Zm1.05,1.49c.3.23.31.51.06.83a.43.43,0,0,1-.29.15.87.87,0,0,1-.36-.18l-.26-.15a.82.82,0,0,0-.51,0,.22.22,0,0,1,0-.16C8.5,16.66,9,16.48,9.33,16.76Zm.28-4.42c0,.05,0,.15-.09.29a2.22,2.22,0,0,1-.1.82l.92-1.2a1.32,1.32,0,0,1,0-.65s.16-.1.38-.17.4-.08.46,0a.24.24,0,0,1,.07.12.44.44,0,0,0,0,.2L13,13l.5.36c.11.08.06.25-.13.51s-.27.3-.32.28L11.9,13.3l-.62.79.1.08c.42-.38.75-.5.95-.38a.46.46,0,0,1,.2.28.3.3,0,0,1,0,.27c-.09.12-.26.12-.53,0a.85.85,0,0,0-.42-.06l.75.56c.07.06,0,.19-.1.39s-.21.23-.27.18l-.5-.42a2.47,2.47,0,0,1-.07.93h-.09a2.44,2.44,0,0,0-.49-1l0-.07c-.15.22-.25.39-.32.51l-.13,0,1.15.89c.08.06,0,.22-.12.45s-.29.33-.36.29-.29-.25-.5-.41L8.81,15.24l-.74-.54.71-.43.41-.53A2.11,2.11,0,0,0,8.63,13C9.18,12.49,9.5,12.26,9.61,12.34Zm-.55,3.25,1.31,1.56a8.73,8.73,0,0,0,.85,1,2.23,2.23,0,0,0,.67.38,1,1,0,0,1,.39.16c.26.21.28.46.05.77s-.47.31-.71.12a4.19,4.19,0,0,0-.55-.56c-.21-.15-.49-.09-.84.2l-.09-.08a2.88,2.88,0,0,0,.28-.39c.18-.21,0-.76-.53-1.6-.21-.36-.53-.87-.93-1.53Zm1.29-.65h0a.67.67,0,0,1-.23-.13l-.17-.11a.47.47,0,0,0-.26,0,.21.21,0,0,1,0-.07c.31-.32.58-.4.81-.23a.27.27,0,0,1,.12.26l.15-.18,0,0-.68-.52c-.15.21-.31.42-.5.66l-.08,0A5.74,5.74,0,0,0,10,13.09L9,14.32l1.12.87A3,3,0,0,0,10.35,14.94Zm.76-1,.25-.32a2.71,2.71,0,0,0,0-.29.3.3,0,0,1,0-.13l.26-.05h.13l-1.14-.88-.38.5a2.08,2.08,0,0,1,.71-.14s0,0,0,.09l-.19.19a3.4,3.4,0,0,1-.32.5Zm.11-1.16s0,.08-.05.18a1.37,1.37,0,0,1,0,.85s0,0,0,0a1.58,1.58,0,0,0-.47-.68C11,12.91,11.2,12.78,11.22,12.81Zm2.37,1a2.66,2.66,0,0,1,.8-.08s.06.08,0,.13L13.28,15.3a1.57,1.57,0,0,0,.89-.28,3.3,3.3,0,0,0,.89-.77l.1.08a.57.57,0,0,0,.1.44,4.68,4.68,0,0,0,.34.33c.07.05.09.11.06.17a2.26,2.26,0,0,1-1.32.41,3.05,3.05,0,0,1-1.19-.22l-.07.09c.62.9.52,2-.27,3.29,0,0-.06,0-.12-.05a2.93,2.93,0,0,0,.05-2.06,2.32,2.32,0,0,0-.24-.43l-.19.25c-.42.57-.68.94-.76,1.09a2.54,2.54,0,0,1-.37-.1,8.39,8.39,0,0,0,1-1.12l.22-.28a3.25,3.25,0,0,0-.5-.47c.62-.55,1-.8,1-.75s.05.19,0,.38l.08.09.57-.74c0-.16-.08-.37-.14-.66a.5.5,0,0,1,0-.13Z"/><path class="cls-1" d="M13.79,8.54,14.73,8A1.5,1.5,0,0,1,15,7.38a1.25,1.25,0,0,1,.44,0c.2,0,.33.05.35.09s0,.18-.11.35l.9,1.44c.09.16.2.3.29.46s0,.26-.3.42-.33.18-.38.14L16,10l-.76.47,2,3.25c.05.09-.05.23-.29.41s-.43.21-.48.16-.19-.37-.34-.61L14,10.23,13,8.69Zm1.48.32-.44-.71-.77.47.45.71Zm.6,1-.48-.76-.76.47.48.76Zm.78-3.05.79-.49a2,2,0,0,1,.22-.65,2.67,2.67,0,0,1,.47-.06c.27,0,.43.08.46.13s0,.12,0,.23,0,.14,0,.17l2.53,4.09a1.08,1.08,0,0,1-.41,1.61c-.09,0-.18,0-.28-.2a.57.57,0,0,0-.57-.3,2,2,0,0,0-.56.12.16.16,0,0,1,0-.15,8,8,0,0,0,.86-.48c.12-.07.13-.19,0-.37L18.8,8.26,18,8.77,18.1,9c.06.11,0,.24-.29.41s-.42.22-.46.16-.2-.35-.36-.61l-.85-1.37-.4-.6Zm1-.37-.81.5.44.72.81-.51Zm.57.91-.81.5.47.76.81-.5Z"/><path class="cls-1" d="M23.18,4a.08.08,0,0,1,0,.1c-.1.06-.15.12-.15.19l.27,1.53.11,0a2,2,0,0,1,.21-.47h.08l.27.22,0,0-.05-.34a4.54,4.54,0,0,0-.15-.61l1.06.19L26,4.65a10.21,10.21,0,0,0-.34-1.43c.8,0,1.21,0,1.22.09v0c.6-.07.93,0,1,.31a.45.45,0,0,1,0,.35,3.14,3.14,0,0,1,.5.35c0,.08,0,.12-.09.13l-1.36.24c.07.36.13.74.21,1.14a7.63,7.63,0,0,0,.22.78,10,10,0,0,0,.17-1.39c.81.21,1.24.36,1.25.45a.15.15,0,0,1-.11.11l-.27,0a9,9,0,0,1-.57,2,1.45,1.45,0,0,0,.61.67c.12,0,.21-.3.27-.83l.15.06a6.62,6.62,0,0,0,0,.85.68.68,0,0,0,.23.47.76.76,0,0,1,.11.29.27.27,0,0,1-.25.34,1,1,0,0,1-.66-.14,2,2,0,0,1-1-.84,4,4,0,0,1-1.82,1.5c-.06-.06-.09-.08-.11-.08A6.25,6.25,0,0,0,26.93,8a9.31,9.31,0,0,1-.58-1.74.31.31,0,0,1-.15.11,7.15,7.15,0,0,1,.05,1.83c0,.33-.21.57-.63.74-.05,0-.09,0-.12-.16a1,1,0,0,0-.23-.42.6.6,0,0,0-.15-.09,2.91,2.91,0,0,1-.3,1.11,3.4,3.4,0,0,1-.92,1.17l-.11-.09A4,4,0,0,0,24.27,8a5.52,5.52,0,0,1-1.42,1.32c0,.23,0,.37-.08.42s-.18-.07-.28-.26A6.14,6.14,0,0,0,22,8.62a5.57,5.57,0,0,0,.8-.22l-.38-2.19a3.39,3.39,0,0,0-.57.14c-.08-.1-.16-.2-.22-.29a5,5,0,0,0,.75,0l-.2-1.19A4.16,4.16,0,0,0,22,4C22.77,3.94,23.17,4,23.18,4Zm.89,2.26L24,5.93l-.72.13.35,2a5.84,5.84,0,0,0,.61-.31A14,14,0,0,0,24.07,6.3Zm2-1.44-1.32.23.18,1L25.29,6a1.16,1.16,0,0,1,.4-.34,1.1,1.1,0,0,1,.37.15l.23.14C26.21,5.63,26.13,5.26,26.07,4.86ZM25.5,8c.08,0,.11-.1.08-.26S25.51,7,25.4,6.25L25,6.32a9.64,9.64,0,0,1,.17,1.73A2.25,2.25,0,0,0,25.5,8Zm1.21-4.41c.05.28.1.57.16.87l.39-.07.16-.26a.31.31,0,0,1-.21-.26.76.76,0,0,0-.43-.43A.23.23,0,0,0,26.71,3.63Z"/><path class="cls-1" d="M34.68,5.5a.17.17,0,0,1-.08.12c-.12,0-.19.06-.2.1l-.08.52,1.13.2c.36-.22.58-.33.67-.31a.86.86,0,0,1,.37.29,1.15,1.15,0,0,1,.3.4.19.19,0,0,1-.12.17,2.25,2.25,0,0,0-.21.12l-.28,1.57c-.1.58-.55.85-1.34.83-.08,0-.11-.08-.08-.22a1.05,1.05,0,0,0-.16-.64.72.72,0,0,0-.39-.23l0-.13a4.35,4.35,0,0,0,.8.15.16.16,0,0,0,.21-.13c.08-.46.17-1,.29-1.63l-1.26-.23-.23,1.26c-.18,1.14-.3,1.9-.36,2.31-.07.21-.33.27-.78.19-.22,0-.32-.13-.3-.25.08-.38.24-1.19.47-2.46l.22-1.22-1.16-.2-.5,2.83c0,.11-.2.16-.53.12s-.5-.13-.5-.21.11-.43.17-.74l.33-1.89c0-.33.08-.62.12-.86l.85.51,1.26.23V6c.07-.41.11-.75.13-1Q34.71,5.31,34.68,5.5Zm2.24-.88a3.27,3.27,0,0,1,.54.77c0,.07-.05.1-.1.09l-5.31-.94a9.08,9.08,0,0,0-1.33-.15c0-.14,0-.27-.07-.39a9.07,9.07,0,0,0,1.44.34L34,4.67a.41.41,0,0,1-.21-.47,1,1,0,0,0-.51-.84.17.17,0,0,1,.06-.09c1,.18,1.48.5,1.42,1a.53.53,0,0,1-.22.41.39.39,0,0,1-.21.08L36,5l.62-.51a.39.39,0,0,1,.14,0Z"/><path class="cls-1" d="M44.85,9.6a3.23,3.23,0,0,1,.25,1c0,.06-.08.07-.13,0L42.66,9.25a4,4,0,0,0-.15,2.25,3.19,3.19,0,0,0,1,1.87c-.06.08-.09.11-.1.11a.34.34,0,0,0-.35,0,2.08,2.08,0,0,0-.59.44c-.13.12-.21.17-.28.15a3.85,3.85,0,0,1-.43-2.67,8.49,8.49,0,0,1,.71-2.3L42.31,9A4.61,4.61,0,0,1,37,11a.24.24,0,0,1,0-.13,5.4,5.4,0,0,0,4.44-2.35L40.61,8a12.54,12.54,0,0,0-1.18-.62c0-.13,0-.26.06-.38a10.06,10.06,0,0,0,1.23.82l.84.51q.3-.4.57-.84l.56-1.12c.74.58,1.08.91,1,1s-.18.09-.37,0l-.55.86a5.44,5.44,0,0,1-.37.56l1.34.8.81-.27a.25.25,0,0,1,.17,0A1,1,0,0,1,44.85,9.6Z"/><path class="cls-1" d="M48.92,16.16a2.33,2.33,0,0,1,0,1.12c-.06,0-.13,0-.21,0l-.15-.18a6.55,6.55,0,0,1-1-.65.16.16,0,0,1,0,.11c-.06.06-.12,0-.2,0a.19.19,0,0,0-.16-.05l-.12.11,1,1.13h.79a.22.22,0,0,1,.14,0A1.26,1.26,0,0,1,49,18a3.69,3.69,0,0,1-.08.94c0,.05-.1.05-.14,0l-1.89-2.2-.58.5c-.38.32-.83.24-1.36-.26-.07-.07,0-.16.05-.25a1,1,0,0,0,.29-.49,1.47,1.47,0,0,0-.19-.6l.12-.08a5.2,5.2,0,0,0,.55.74c.06.07.14.06.24,0l.28-.25-.85-1a10.26,10.26,0,0,0-.92-1c.06-.11.11-.24.18-.35a7.77,7.77,0,0,0,.9,1.18l.84,1,.21-.18a1.13,1.13,0,0,0,.28-.34l.44.72c.26,0,.5.06.73.07L46.77,14.6a8.25,8.25,0,0,0-.58-.59l.19-.35a7.56,7.56,0,0,0,.81,1.09l1,1.21.65.1A.42.42,0,0,1,48.92,16.16Zm1-3.53s-.13,0-.24-.11a5,5,0,0,1-1-.56l-.38.34.08.09h.51l.07,0,0,.16a4.61,4.61,0,0,1,0,.64c-.07,0-.13,0-.16,0l-.65-.77-.49.44.09.11h.51l.07,0a.63.63,0,0,1,0,.16,3.55,3.55,0,0,1,0,.63c-.07,0-.12,0-.16,0L47.54,13l-.5.45,2.46,2.86L50,16l-.13-.15c-.21-.21-.35-.36-.43-.42s.1-.22.15-.32a3.31,3.31,0,0,0,.45.61l.13.14.5-.4-.15-.17a4.17,4.17,0,0,0-.42-.4,3,3,0,0,1,.15-.31,3.37,3.37,0,0,0,.45.6l.13.15.46-.38L51,14.59a2.51,2.51,0,0,0-.25-.24l.12-.24a.63.63,0,0,1-.18-.16h-.22a.5.5,0,0,1-.16.49.43.43,0,0,1-.17.11c-.13.07-.25,0-.38-.11s-.07-.27,0-.56a.24.24,0,0,1,0-.08,3.54,3.54,0,0,1-.82-.42v-.08a3.1,3.1,0,0,0,.86,0,1.91,1.91,0,0,0-.11-.51.11.11,0,0,1,.08,0,4.46,4.46,0,0,1,.37.48,5.62,5.62,0,0,0,.58-.19c.19.66.27,1,.21,1.07h0a1.37,1.37,0,0,0,.18.31l.27.3a1.13,1.13,0,0,1,.58.08.94.94,0,0,1,.13.47c0,.25,0,.4,0,.45s-.2,0-.39,0l-1.43,1.11c.11,0,.18,0,.19.05a1.54,1.54,0,0,1,0,.47c0,.27,0,.43-.09.46a.12.12,0,0,1-.15,0l-.15-.14A3.5,3.5,0,0,1,49,17.34s0-.06,0-.1a3.32,3.32,0,0,0,.73-.3l-3.31-3.83a1.36,1.36,0,0,1-.34.47.5.5,0,0,1-.73-.12c-.19-.22-.2-.4,0-.55a.82.82,0,0,1,.39-.16,1.09,1.09,0,0,0,.58-.26l.23-.19.13,0a3.75,3.75,0,0,1-.13.51l1.58-1.48.42-.41.32.86a1.06,1.06,0,0,0,.54-.23C49.84,12.23,50,12.58,50,12.63ZM49.81,15c-.05,0-.14,0-.27-.17l-.23,0a.71.71,0,0,1-.24.55l-.13.09a.24.24,0,0,1-.29-.09c-.09-.1-.1-.31,0-.63a.38.38,0,0,0,0-.1,4,4,0,0,1-1-.52V14a3,3,0,0,0,1,.1,1.76,1.76,0,0,0-.13-.66l.06,0a6.13,6.13,0,0,1,.46.63,2.51,2.51,0,0,0,.52-.14A2.73,2.73,0,0,1,49.81,15Z"/><path class="cls-1" d="M10.82,38.88a1.87,1.87,0,0,1-.36.11.7.7,0,0,1-.25,0,.93.93,0,0,1-.54-1.36,1,1,0,0,1,.24-.2l.3-.13,1.07-.42.15.39-1,.41-.26.11a.54.54,0,0,0-.21.18.38.38,0,0,0,0,.39.41.41,0,0,0,.41.28,1.73,1.73,0,0,0,.44-.12l1-.41.13.35Z"/><path class="cls-1" d="M10.9,41.12l-.18-.36.76-.37a.67.67,0,0,0,.23-.18.26.26,0,0,0,0-.27.3.3,0,0,0-.32-.19,1.33,1.33,0,0,0-.24.08l-.72.37-.18-.35,1.33-.68.18.35-.18.1A.65.65,0,0,1,12,40a.46.46,0,0,1,0,.55,1.36,1.36,0,0,1-.34.21Z"/><path class="cls-1" d="M11.46,42.07l-.21-.34L12.54,41l.19.33Zm1.69-1a.21.21,0,0,1-.17,0,.24.24,0,0,1-.15-.09.28.28,0,0,1,0-.18.26.26,0,0,1,.1-.13.23.23,0,0,1,.18,0,.24.24,0,0,1,.14.11.2.2,0,0,1,0,.17A.19.19,0,0,1,13.15,41.09Z"/><path class="cls-1" d="M13.76,42.92l-1.56.3L12.05,43l.86-1.32.28.29-.65.9,1.1-.25Z"/><path class="cls-1" d="M14.21,44.61h0l-.05,0-.57-.7a.57.57,0,0,0-.19.32.44.44,0,0,0,.1.34.71.71,0,0,0,.34.23l-.09.22a1.21,1.21,0,0,1-.49-.35.75.75,0,0,1,.13-1.12.69.69,0,0,1,.57-.18.73.73,0,0,1,.49.29.55.55,0,0,1,.09.64A1.1,1.1,0,0,1,14.21,44.61Zm-.1-.36s0,0,.05,0,.19-.3.08-.45-.31-.15-.53,0Z"/><path class="cls-1" d="M15.7,45.29l-.31.08a.33.33,0,0,0-.08-.18.24.24,0,0,0-.29,0,1,1,0,0,0-.29.22l-.46.43L14,45.5l1.09-1,.27.29-.19.19.11,0a.3.3,0,0,1,.33.06A.41.41,0,0,1,15.7,45.29Z"/><path class="cls-1" d="M16,46.86a.35.35,0,0,1-.33.13.64.64,0,0,1-.38-.18.81.81,0,0,1-.25-.46l.24-.07a.5.5,0,0,0,.13.32.21.21,0,0,0,.15.07.13.13,0,0,0,.13-.05.2.2,0,0,0,.06-.13c0-.05,0-.14,0-.27a1.3,1.3,0,0,1,0-.28.37.37,0,0,1,.1-.26.36.36,0,0,1,.31-.12.69.69,0,0,1,.35.16.84.84,0,0,1,.22.39l-.21.06a.44.44,0,0,0-.13-.23.18.18,0,0,0-.13-.06.15.15,0,0,0-.11,0,.5.5,0,0,0,0,.32,2,2,0,0,1,0,.4A.33.33,0,0,1,16,46.86Z"/><path class="cls-1" d="M16.45,47.81l-.31-.25.95-1.16.3.24ZM17.7,46.3a.24.24,0,0,1-.16.09.25.25,0,0,1-.16,0,.22.22,0,0,1-.08-.15.18.18,0,0,1,.05-.16.18.18,0,0,1,.15-.09.22.22,0,0,1,.17.05.19.19,0,0,1,.08.15A.19.19,0,0,1,17.7,46.3Z"/><path class="cls-1" d="M18.2,49.05l-.31-.21.12-.18a.66.66,0,0,1-.56-.07.61.61,0,0,1-.28-.48.88.88,0,0,1,.17-.54.76.76,0,0,1,.48-.35.62.62,0,0,1,.54.1.59.59,0,0,1,.26.45l.5-.74.32.22Zm.11-.83a.64.64,0,0,0,.14-.38.32.32,0,0,0-.16-.27.29.29,0,0,0-.3,0,.7.7,0,0,0-.3.26.86.86,0,0,0-.15.4.33.33,0,0,0,.46.3A.66.66,0,0,0,18.31,48.22Z"/><path class="cls-1" d="M19.87,50l-.36-.19a.59.59,0,0,1,.06-.2.58.58,0,0,1-.53,0,.47.47,0,0,1-.21-.25.42.42,0,0,1,0-.33.47.47,0,0,1,.44-.25,1.37,1.37,0,0,1,.42.06l.24.06a.28.28,0,0,0-.13-.37.51.51,0,0,0-.41,0l0-.23a1,1,0,0,1,.62.1.57.57,0,0,1,.34.43.33.33,0,0,1,0,.17,1.73,1.73,0,0,1-.12.26l-.19.36A1.45,1.45,0,0,0,19.87,50Zm-.07-.8.07-.12-.16,0c-.25-.06-.41,0-.49.1a.32.32,0,0,0,0,.17.19.19,0,0,0,.1.12.36.36,0,0,0,.21,0,.35.35,0,0,0,.16-.08A.55.55,0,0,0,19.8,49.19Z"/><path class="cls-1" d="M21.77,50.81l-.36-.14.09-.21a.66.66,0,0,1-.56,0,.6.6,0,0,1-.37-.41.81.81,0,0,1,.05-.57.76.76,0,0,1,.4-.44.66.66,0,0,1,.55,0,.57.57,0,0,1,.34.4l.35-.83.35.15ZM21.71,50a.62.62,0,0,0,.05-.39.33.33,0,0,0-.2-.24.31.31,0,0,0-.31,0,.77.77,0,0,0-.24.32.81.81,0,0,0-.06.42.33.33,0,0,0,.19.25.34.34,0,0,0,.32,0A.84.84,0,0,0,21.71,50Z"/><path class="cls-1" d="M23.86,50.68h-.09l-.86-.26a.52.52,0,0,0,0,.39.43.43,0,0,0,.28.21.55.55,0,0,0,.4,0l.05.24a1.25,1.25,0,0,1-.61,0,.76.76,0,0,1-.46-.36.79.79,0,0,1-.06-.64.74.74,0,0,1,.37-.47.77.77,0,0,1,.58,0,.56.56,0,0,1,.43.47A1.24,1.24,0,0,1,23.86,50.68Zm-.29-.24s0,0,0-.07c.05-.22,0-.36-.18-.41s-.35,0-.43.3Z"/><path class="cls-1" d="M26.63,52l-.38-.06,0-.22a.7.7,0,0,1-.54.18.6.6,0,0,1-.46-.32.92.92,0,0,1,.2-1.08.66.66,0,0,1,.54-.14.55.55,0,0,1,.42.3l.14-.88.38,0Zm-.26-.82a.62.62,0,0,0,0-.39.33.33,0,0,0-.26-.18.29.29,0,0,0-.29.09.6.6,0,0,0-.15.36.75.75,0,0,0,0,.43.32.32,0,0,0,.24.2.34.34,0,0,0,.3-.12A.64.64,0,0,0,26.37,51.17Z"/><path class="cls-1" d="M28.53,52.15l-.41,0a.46.46,0,0,1,0-.2.62.62,0,0,1-.5.2.4.4,0,0,1-.29-.15.4.4,0,0,1-.1-.32.46.46,0,0,1,.31-.4,1.59,1.59,0,0,1,.4-.12l.25,0a.29.29,0,0,0-.28-.29.59.59,0,0,0-.39.13l-.11-.19a1,1,0,0,1,.6-.16.61.61,0,0,1,.49.24.49.49,0,0,1,.06.17,1.36,1.36,0,0,1,0,.29l0,.4A1.66,1.66,0,0,0,28.53,52.15Zm-.38-.69v-.14l-.17,0c-.25,0-.39.14-.4.29a.19.19,0,0,0,.05.16.17.17,0,0,0,.13.07.31.31,0,0,0,.21,0,.3.3,0,0,0,.11-.14A.68.68,0,0,0,28.15,51.46Z"/><path class="cls-1" d="M31.78,50.16l-.13.26a1,1,0,0,0-.45-.11.72.72,0,0,0-.54.24.78.78,0,0,0-.18.57.75.75,0,0,0,.23.56.73.73,0,0,0,.57.2.94.94,0,0,0,.43-.13l.13.25a1.31,1.31,0,0,1-.61.18,1.18,1.18,0,0,1-.85-.27,1,1,0,0,1-.35-.75,1.07,1.07,0,0,1,.3-.8,1.21,1.21,0,0,1,.82-.34A1.26,1.26,0,0,1,31.78,50.16Z"/><path class="cls-1" d="M32.63,50.07a.24.24,0,0,1-.2.25.19.19,0,0,1-.16,0,.18.18,0,0,1-.09-.14.27.27,0,0,1,0-.18.24.24,0,0,1,.15-.08.23.23,0,0,1,.17.05A.18.18,0,0,1,32.63,50.07ZM32.81,52l-.39,0-.16-1.48.39,0Z"/><path class="cls-1" d="M35,51.67l-.38.07,0-.22a.68.68,0,0,1-.45.34.55.55,0,0,1-.53-.15.84.84,0,0,1-.27-.49.83.83,0,0,1,.1-.59.68.68,0,0,1,.46-.31.62.62,0,0,1,.5.14l-.16-.87.37-.08ZM34.43,51a.61.61,0,0,0-.17-.36.31.31,0,0,0-.3-.09.31.31,0,0,0-.24.19.69.69,0,0,0,0,.39.88.88,0,0,0,.17.39.32.32,0,0,0,.3.1.3.3,0,0,0,.24-.2A.72.72,0,0,0,34.43,51Z"/><path class="cls-1" d="M36.8,51.18l-.41.11a1.5,1.5,0,0,1-.09-.18.63.63,0,0,1-.39.36.47.47,0,0,1-.33,0,.43.43,0,0,1-.2-.27.48.48,0,0,1,.14-.48,1.77,1.77,0,0,1,.35-.26l.23-.12a.31.31,0,0,0-.37-.18.6.6,0,0,0-.32.26l-.18-.14a1,1,0,0,1,.52-.35.53.53,0,0,1,.53.06.33.33,0,0,1,.13.13,1.31,1.31,0,0,1,.09.28l.11.38A1.22,1.22,0,0,0,36.8,51.18Zm-.61-.53,0-.13L36,50.6c-.23.13-.32.26-.28.41a.24.24,0,0,0,.1.14.2.2,0,0,0,.15,0,.21.21,0,0,0,.17-.12.36.36,0,0,0,.07-.17A.83.83,0,0,0,36.19,50.65Z"/><path class="cls-1" d="M38.73,50.46l-.36.14-.07-.2a.67.67,0,0,1-.38.42.59.59,0,0,1-.55,0,.91.91,0,0,1-.36-.45.81.81,0,0,1,0-.59.65.65,0,0,1,.39-.39.59.59,0,0,1,.52,0l-.32-.83.36-.14Zm-.63-.57a.63.63,0,0,0-.24-.32.34.34,0,0,0-.31,0,.31.31,0,0,0-.2.23.61.61,0,0,0,0,.39.81.81,0,0,0,.25.35.32.32,0,0,0,.31.05.31.31,0,0,0,.2-.25A.72.72,0,0,0,38.1,49.89Z"/><path class="cls-1" d="M40.15,48.92l0,0,0,0-.8.41a.54.54,0,0,0,.28.26.46.46,0,0,0,.36,0,.78.78,0,0,0,.28-.29l.2.14a1.21,1.21,0,0,1-.44.41.8.8,0,0,1-.58.07.81.81,0,0,1-.5-.43.72.72,0,0,1,0-.59.68.68,0,0,1,.38-.42.55.55,0,0,1,.64,0A1.07,1.07,0,0,1,40.15,48.92Zm-.38,0a.21.21,0,0,0,0-.06c-.12-.2-.25-.25-.41-.17s-.22.27-.11.51Z"/><path class="cls-1" d="M43,47.91l-.31.22L42.58,48a.66.66,0,0,1-.25.51.57.57,0,0,1-.55.09.78.78,0,0,1-.45-.33.77.77,0,0,1-.17-.57.66.66,0,0,1,.27-.48.6.6,0,0,1,.52-.09l-.53-.72.31-.22Zm-.76-.39a.68.68,0,0,0-.31-.26.34.34,0,0,0-.31.05.32.32,0,0,0-.13.27.66.66,0,0,0,.14.37.76.76,0,0,0,.33.28.31.31,0,0,0,.31,0,.34.34,0,0,0,.13-.29A.65.65,0,0,0,42.26,47.52Z"/><path class="cls-1" d="M44,46.05s0,0,0,0a.1.1,0,0,0,0,0l-.67.6a.48.48,0,0,0,.34.17A.42.42,0,0,0,44,46.8a.69.69,0,0,0,.21-.35l.22.08a1.15,1.15,0,0,1-.32.51.73.73,0,0,1-.54.21A.76.76,0,0,1,43,47,.74.74,0,0,1,43,45.9a.54.54,0,0,1,.63-.12A1.06,1.06,0,0,1,44,46.05Zm-.37.13-.05,0c-.16-.17-.31-.18-.44-.06s-.14.31,0,.52Z"/><path class="cls-1" d="M47.05,43.71l-.26.32-.9-.72L45.53,43a4.36,4.36,0,0,1,.24.41l.6,1.15-.12.15L45,44.35l-.45-.16.39.29.89.73-.21.26L44,44.16l.3-.37,1.6.46-.78-1.5.29-.35Z"/><path class="cls-1" d="M48.1,42.08l-.22.35a.62.62,0,0,1-.19-.07.59.59,0,0,1-.06.52.38.38,0,0,1-.27.19A.39.39,0,0,1,47,43a.47.47,0,0,1-.21-.46,1.22,1.22,0,0,1,.09-.42L47,41.9a.29.29,0,0,0-.39.1.6.6,0,0,0-.06.41h-.23a.93.93,0,0,1,.15-.61.57.57,0,0,1,.44-.31l.18,0a2.46,2.46,0,0,1,.26.14l.33.22A1.41,1.41,0,0,0,48.1,42.08Zm-.79,0L47.19,42a1.51,1.51,0,0,0-.06.15c-.08.25-.06.42.07.49a.19.19,0,0,0,.16,0,.14.14,0,0,0,.13-.08.33.33,0,0,0,0-.2.29.29,0,0,0-.07-.17A.73.73,0,0,0,47.31,42.09Z"/><path class="cls-1" d="M48.89,40.45a1,1,0,0,1-.12.52.82.82,0,0,1-.46.4.76.76,0,0,1-.6-.08.71.71,0,0,1-.38-.48.77.77,0,0,1,.09-.62.75.75,0,0,1,.32-.34l.13.19a.62.62,0,0,0-.2.23.42.42,0,0,0,0,.36.62.62,0,0,0,.66.35.38.38,0,0,0,.29-.22.61.61,0,0,0,.07-.32Z"/><path class="cls-1" d="M49.72,38.91l-.18.38a.65.65,0,0,1-.19,0,.62.62,0,0,1,0,.53.43.43,0,0,1-.24.22.42.42,0,0,1-.33,0,.49.49,0,0,1-.29-.42,1.59,1.59,0,0,1,0-.42c0-.07,0-.16.05-.26a.29.29,0,0,0-.36.17.56.56,0,0,0,0,.41l-.21,0a.83.83,0,0,1,.06-.62.57.57,0,0,1,.38-.38h.18l.27.1.37.16A1.16,1.16,0,0,0,49.72,38.91Zm-.79.14L48.8,39a1.39,1.39,0,0,0,0,.17c-.05.25,0,.41.13.48a.25.25,0,0,0,.17,0,.19.19,0,0,0,.12-.1.28.28,0,0,0,0-.2.35.35,0,0,0-.09-.17A.58.58,0,0,0,48.93,39.05Z"/><path class="cls-1" d="M50.41,37l-.13.37-.19-.07a.69.69,0,0,1,.06.56.47.47,0,0,1-.42.35,1.21,1.21,0,0,1-.4-.09l-.8-.28.13-.37.81.28a.53.53,0,0,0,.28,0,.28.28,0,0,0,.2-.18.33.33,0,0,0-.08-.36.75.75,0,0,0-.24-.12l-.76-.27.13-.37Z"/><path class="cls-1" d="M7.47,36.17,6.94,36a1.82,1.82,0,0,0,0-.89,1.34,1.34,0,0,0-.62-.91,1.49,1.49,0,0,0-1.13-.15,1.49,1.49,0,0,0-1,.63,1.41,1.41,0,0,0-.17,1.13,1.78,1.78,0,0,0,.39.76l-.42.32a2.32,2.32,0,0,1-.54-1.07,2.23,2.23,0,0,1,.19-1.66A1.88,1.88,0,0,1,5,33.26a2,2,0,0,1,1.59.28A2.23,2.23,0,0,1,7.51,35,2.41,2.41,0,0,1,7.47,36.17Z"/><path class="cls-1" d="M4.49,38.86l-.23-.71,2.68-.9.23.71ZM8,37.73a.47.47,0,0,1-.33,0,.4.4,0,0,1-.22-.24.46.46,0,0,1,0-.33.39.39,0,0,1,.24-.21.44.44,0,0,1,.34,0,.43.43,0,0,1,.21.26.4.4,0,0,1,0,.32A.42.42,0,0,1,8,37.73Z"/><path class="cls-1" d="M5.78,41.77a1.7,1.7,0,0,1-.46-.63.81.81,0,0,1,0-.79A1.38,1.38,0,0,1,6,39.93l1.34-.56L7.14,39l.35-.15.16.37L8.27,39l.44.62-.78.33.29.67-.35.16-.29-.68-1.19.51a1.17,1.17,0,0,0-.51.31.32.32,0,0,0,0,.34.77.77,0,0,0,.22.29Z"/><path class="cls-1" d="M9.72,43.6l-3.39.28a2.35,2.35,0,0,1-.94-.05,1.4,1.4,0,0,1-.65-.65L4.66,43l.44-.24.07.13a1,1,0,0,0,.26.33.7.7,0,0,0,.36.1,4.67,4.67,0,0,0,.84,0l1.71-2.18.48.57-1.4,1.59L9.55,43Z"/><path class="cls-1" d="M12.47,48.74a5,5,0,0,1-.56.43,2,2,0,0,1-.45.15,1.54,1.54,0,0,1-1.42-.6,1.52,1.52,0,0,1-.42-1.48,1.44,1.44,0,0,1,.32-.51,3.62,3.62,0,0,1,.44-.43L12,44.86l.53.6L11,46.85a3.41,3.41,0,0,0-.38.37,1.29,1.29,0,0,0-.28.44.74.74,0,0,0,.19.72.76.76,0,0,0,.91.24,2.58,2.58,0,0,0,.7-.5l1.56-1.37.47.52Z"/><path class="cls-1" d="M14.36,52.53l-.58-.45,1-1.27a1.07,1.07,0,0,0,.26-.47.46.46,0,0,0-.22-.47.58.58,0,0,0-.71-.07,2,2,0,0,0-.33.33l-.94,1.21-.59-.47L14,48.64l.59.47-.23.3a1.27,1.27,0,0,1,1,.25.85.85,0,0,1,.37,1,2.12,2.12,0,0,1-.39.65Z"/><path class="cls-1" d="M16.26,53.68l-.64-.38L17,50.86l.65.37Zm1.9-3.17a.41.41,0,0,1-.26.2.38.38,0,0,1-.31,0,.49.49,0,0,1-.21-.26.39.39,0,0,1,0-.32.54.54,0,0,1,.26-.22.47.47,0,0,1,.34.06.4.4,0,0,1,.14.58Z"/><path class="cls-1" d="M20.92,52.8l-2.2,2.06-.47-.2,0-3,.73.16L18.92,54l1.49-1.52Z"/><path class="cls-1" d="M23.46,54.89l-.08,0-.08,0-1.64-.44a1,1,0,0,0,.06.72.8.8,0,0,0,.54.4,1.41,1.41,0,0,0,.76,0l.1.43A2.21,2.21,0,0,1,22,56a1.48,1.48,0,0,1-.9-.64,1.53,1.53,0,0,1-.15-1.23,1.38,1.38,0,0,1,.68-.9,1.36,1.36,0,0,1,1.07-.11,1.07,1.07,0,0,1,.85.87A2,2,0,0,1,23.46,54.89Zm-.57-.45s0-.08,0-.14c.08-.42,0-.67-.36-.76s-.64.1-.8.59Z"/><path class="cls-1" d="M26.56,54.16l-.35.49a1,1,0,0,0-.34-.17.45.45,0,0,0-.48.27,2.25,2.25,0,0,0-.17.65L25,56.59l-.74-.11.42-2.79.74.11-.08.49.14-.16a.61.61,0,0,1,.56-.3A.78.78,0,0,1,26.56,54.16Z"/><path class="cls-1" d="M28.92,56.16a.76.76,0,0,1-.34.59,1.13,1.13,0,0,1-.77.19,1.46,1.46,0,0,1-.91-.38l.26-.38a1,1,0,0,0,.58.33.56.56,0,0,0,.3-.08.29.29,0,0,0,.12-.25.34.34,0,0,0-.07-.24,2.33,2.33,0,0,0-.38-.35,2.94,2.94,0,0,1-.39-.37.72.72,0,0,1,.14-1,1.13,1.13,0,0,1,.7-.18,1.45,1.45,0,0,1,.79.28l-.23.34a.86.86,0,0,0-.46-.18.44.44,0,0,0-.26.07.24.24,0,0,0-.11.19q0,.16.36.48a3.54,3.54,0,0,1,.55.53A.7.7,0,0,1,28.92,56.16Z"/><path class="cls-1" d="M30.89,53.23a.45.45,0,0,1-.12.31.42.42,0,0,1-.3.13.44.44,0,0,1-.3-.12.36.36,0,0,1-.13-.29.41.41,0,0,1,.11-.32.44.44,0,0,1,.31-.13.41.41,0,0,1,.3.12A.46.46,0,0,1,30.89,53.23Zm0,3.69-.74,0-.06-2.83h.74Z"/><path class="cls-1" d="M34.07,56.59a1.67,1.67,0,0,1-.74.25.78.78,0,0,1-.75-.27,1.23,1.23,0,0,1-.21-.7l-.13-1.45-.39,0,0-.37.39,0-.06-.68.73-.23L33,54l.73-.07,0,.38-.74.07.12,1.29a1.26,1.26,0,0,0,.14.57.28.28,0,0,0,.31.14.85.85,0,0,0,.35-.11Z"/><path class="cls-1" d="M37,53.39l-.76,3.31a2.31,2.31,0,0,1-.34.88,1.37,1.37,0,0,1-.82.43l-.17,0-.1-.49.15,0a.84.84,0,0,0,.38-.15.69.69,0,0,0,.22-.31,5.46,5.46,0,0,0,.21-.81L34.22,54l.7-.28L36,55.49l.41-2.11Z"/><path class="cls-1" d="M42.45,52.77a1.44,1.44,0,0,1,0,1.15,1.54,1.54,0,0,1-1.94.85,1.48,1.48,0,0,1-.81-.82,1.42,1.42,0,0,1,0-1.14,1.45,1.45,0,0,1,.81-.8,1.41,1.41,0,0,1,1.12,0A1.38,1.38,0,0,1,42.45,52.77Zm-.71.31a1.35,1.35,0,0,0-.48-.63.58.58,0,0,0-.58-.05.58.58,0,0,0-.35.46,1.45,1.45,0,0,0,.13.78,1.5,1.5,0,0,0,.49.65.57.57,0,0,0,.59.06.58.58,0,0,0,.35-.47A1.58,1.58,0,0,0,41.74,53.08Z"/><path class="cls-1" d="M43.39,49.18l.08.39a.91.91,0,0,0-.29.1.34.34,0,0,0-.18.4,1.21,1.21,0,0,0,.13.27l.18.29.58-.36.2.33L43.5,51l1.27,2.09-.63.38-1.26-2.09-.39.23-.2-.32.39-.24-.14-.23a1.08,1.08,0,0,1-.19-.75,1,1,0,0,1,.49-.66A1.5,1.5,0,0,1,43.39,49.18Z"/><path class="cls-1" d="M50.84,47.81l-.54.56-1.56-1.52c-.12-.12-.34-.34-.64-.66a6.62,6.62,0,0,1,.38.82l.93,2.27-.25.26-2.28-.88-.82-.36c.26.22.48.42.68.61l1.57,1.51-.44.46L45,48.13l.63-.64,2.94,1.14-1.2-3,.61-.62Z"/><path class="cls-1" d="M53,44.65l-.44.66a1,1,0,0,1-.34-.16,1.19,1.19,0,0,1-.14,1,.74.74,0,0,1-.52.34.75.75,0,0,1-.61-.12.92.92,0,0,1-.39-.88,2.66,2.66,0,0,1,.19-.78l.17-.45a.56.56,0,0,0-.74.19,1.15,1.15,0,0,0-.15.76H49.6a1.71,1.71,0,0,1,.31-1.14,1.11,1.11,0,0,1,.84-.58,1,1,0,0,1,.34,0,2.43,2.43,0,0,1,.47.28l.63.42A2.78,2.78,0,0,0,53,44.65Zm-1.51,0-.22-.15-.11.29c-.17.46-.14.77.1.93a.42.42,0,0,0,.3.07.35.35,0,0,0,.26-.16.6.6,0,0,0,.09-.38.57.57,0,0,0-.12-.32A1.11,1.11,0,0,0,51.48,44.65Z"/><path class="cls-1" d="M54.49,41.41a1.79,1.79,0,0,1-.2,1,1.49,1.49,0,0,1-.85.77,1.51,1.51,0,0,1-1.89-1A1.53,1.53,0,0,1,51.69,41a1.58,1.58,0,0,1,.59-.66l.26.38a1.13,1.13,0,0,0-.37.42.82.82,0,0,0-.06.68,1,1,0,0,0,.52.54,1.11,1.11,0,0,0,.76.11.79.79,0,0,0,.54-.44,1.24,1.24,0,0,0,.11-.61Z"/><path class="cls-1" d="M55.94,38.3l-.28.73a1.31,1.31,0,0,1-.38-.06,1.12,1.12,0,0,1,.1,1,.78.78,0,0,1-.42.45.77.77,0,0,1-.63,0,.92.92,0,0,1-.58-.77,2.67,2.67,0,0,1,0-.8c0-.13,0-.29.07-.48a.55.55,0,0,0-.67.35,1.11,1.11,0,0,0,0,.78l-.41.1a1.71,1.71,0,0,1,0-1.18,1.05,1.05,0,0,1,.69-.75,1,1,0,0,1,.34,0,3.5,3.5,0,0,1,.52.15l.71.27A3.08,3.08,0,0,0,55.94,38.3Zm-1.47.33-.26-.09c0,.06,0,.16,0,.31-.07.48,0,.78.3.88a.44.44,0,0,0,.32,0,.36.36,0,0,0,.21-.21.58.58,0,0,0,0-.39.63.63,0,0,0-.2-.29A1.47,1.47,0,0,0,54.47,38.63Z"/><path class="cls-1" d="M57,34.48l-.18.72-.37-.08a1.22,1.22,0,0,1,.2,1,.86.86,0,0,1-.72.74,2.58,2.58,0,0,1-.76-.1l-1.56-.39.18-.72,1.57.38a1.06,1.06,0,0,0,.54,0,.49.49,0,0,0,.34-.38.57.57,0,0,0-.2-.64,1.36,1.36,0,0,0-.49-.2l-1.47-.36.17-.73Z"/><path class="cls-2" d="M39.9,44.31c-2.61-1.7-6.08-1-8.08-.35a7.92,7.92,0,0,1,7.7-.77l.42.19,2.72-5.68-1.12.11c-1.11,2.31-2,4.08-2.07,4.33a9.11,9.11,0,0,0-8.54,1.29v-.24a8.42,8.42,0,0,1,7.7-2.14l.4.1,1.38-3.24-1.09.1c-.48,1.14-.81,1.9-.87,2a9.28,9.28,0,0,0-7.52,1.89v-3.5H29v3.49A9.29,9.29,0,0,0,21.47,40c0-.13-.37-.87-.84-2L19.54,38l1.36,3.2.39-.1A8.44,8.44,0,0,1,29,43.19v.24a9.12,9.12,0,0,0-8.54-1.29l-2.05-4.3-1.13-.12L20,43.38l.43-.19a7.92,7.92,0,0,1,7.7.77c-2-.65-5.47-1.35-8.09.35-.21-.4-1.87-3.44-3.65-6.69l-1.17-.15,4.51,8.29.45-.36c3.33-2.67,9.07,0,9.13.06l.66.31h0l.66-.31c.05,0,5.79-2.73,9.13-.06l.44.36,4.52-8.29-1.17.13C41.79,40.86,40.12,43.91,39.9,44.31Z"/><polygon class="cls-2" points="34.1 28.29 33.98 28.28 33.97 28.56 34.09 28.56 34.1 28.29"/><path class="cls-2" d="M42,31.08l-.19-1.57h0v-.07h0l0-.39h-.11l0,.39h-.57l0-.38h-.11l0,.38h-.12c-1-.19-1.09-.52-1.09-.65H34c0,.13-.06.46-1.09.65h-.12l0-.38h-.12l0,.38h-.57l0-.39H32l0,.39h0v.07l-.19,1.57Zm-5.55-1.81h0c0-.18.18-.32.42-.32h0c.24,0,.44.14.44.32h0l.06,1.39h-1Z"/><path class="cls-2" d="M38.56,27.4H35.14a1.45,1.45,0,0,1-.91,1.16h5.24A1.43,1.43,0,0,1,38.56,27.4Z"/><polygon class="cls-2" points="39.73 28.56 39.72 28.28 39.6 28.29 39.61 28.56 39.73 28.56"/><polygon class="cls-2" points="38.45 26.7 38.34 26.7 38.34 27.12 37.96 26.82 37.96 26.4 37.84 26.4 37.84 26.73 36.9 25.99 36.9 25.73 37.12 25.73 37.12 25.69 36.9 25.69 36.9 25.41 36.8 25.41 36.8 25.69 36.59 25.69 36.59 25.73 36.8 25.73 36.8 25.99 35.85 26.73 35.85 26.4 35.74 26.4 35.74 26.82 35.36 27.12 35.36 26.7 35.24 26.7 35.24 27.18 38.45 27.18 38.45 26.7"/><path class="cls-2" d="M47.58,27.41l1-2.15L48.32,25a21.63,21.63,0,0,0-1.85-1.35l.8-1.87L47,21.57a11.63,11.63,0,0,0-6.67-2.52c-2.73-.1-7.7.49-10.31,5.43l-.05.1-.06-.1C27.29,19.54,22.33,19,19.6,19.05a11.59,11.59,0,0,0-6.67,2.52l-.27.23.79,1.87A20.51,20.51,0,0,0,11.61,25l-.29.24,1,2.15a18.47,18.47,0,0,0-1.51,1.38l-.24.26,4.24,7.77h1.1c-2-3.65-4-7.31-4.16-7.61.21-.21.55-.52,1-.9l4.07,8.51h1.07c-1.49-3.09-3.27-6.82-4.37-9.12.37-.29.78-.59,1.24-.9l4.26,10H20.1L15.61,26.27A17.7,17.7,0,0,1,18,25a10.81,10.81,0,0,1,9.26.19L29,26.46V36.78l1.93,0V26.46l1.7-1.24A10.8,10.8,0,0,1,41.89,25a17.83,17.83,0,0,1,2.43,1.24L42,31.68l0-.38H31.73l-.33,2.62H42.31l-.05-.36,2.88-6.77c.45.31.87.61,1.24.9l-3.87,8.09-.2-1.61H31.38l-.31,2.63h1.84L33.08,35l1.62,0-.11,1.81H35.9L36,34.62h1.66l.12,2.23h1.31L39,35l1.6,0-.79,1.87,3.24,0,4.1-8.58c.44.38.78.69,1,.9L44,36.89H45l4.28-7.83v0l-.22-.24A18.47,18.47,0,0,0,47.58,27.41Zm-34.46-.62c-.33-.7-.55-1.16-.61-1.26.28-.22.74-.56,1.33-1l.56,1.3C13.94,26.19,13.51,26.5,13.12,26.79Zm4.55-2.65a17.38,17.38,0,0,0-2.44,1.23c-.21-.48-.39-.92-.56-1.32a15.16,15.16,0,0,1,4.45-1.89,10.16,10.16,0,0,1,8.3,2A11.81,11.81,0,0,0,17.67,24.14Zm1.24-2.91a15.69,15.69,0,0,0-4.63,1.93l-.45-1.07A10.85,10.85,0,0,1,19.63,20c2.21-.07,6,.34,8.5,3.5A11.06,11.06,0,0,0,18.91,21.23ZM34.39,32.42l-.07,1.16h-.8l.15-1.16h0c0-.14.16-.26.36-.26s.36.12.36.26h0Zm1.85,1.23L36.32,32h0a.47.47,0,0,1,.51-.39h0c.29,0,.52.18.52.39h0l.08,1.66Zm3.14-.07-.07-1.16h0c0-.14.16-.26.36-.26s.36.12.36.26h0l.15,1.16ZM40.3,20a10.88,10.88,0,0,1,5.8,2.08l-.46,1.07A15.62,15.62,0,0,0,41,21.23a11.05,11.05,0,0,0-9.22,2.28C34.29,20.35,38.09,19.94,40.3,20Zm4.4,5.36a17.38,17.38,0,0,0-2.44-1.23,11.81,11.81,0,0,0-9.75.05,10.16,10.16,0,0,1,8.3-2,15.28,15.28,0,0,1,4.45,1.89Zm2.11,1.42c-.39-.29-.82-.6-1.28-.91l.56-1.3c.59.39,1,.73,1.32,1Z"/><path class="cls-2" d="M42,34.17l.11-.25h-1l-.1.25Z"/><path class="cls-1" d="M12.78,28.31c-.45.38-.79.69-1,.9.17.3,2.17,4,4.16,7.61h.91Z"/><path class="cls-1" d="M20,44.31c2.62-1.7,6.09-1,8.09-.35a7.92,7.92,0,0,0-7.7-.77l-.43.19-2.7-5.66-.91-.1C18.15,40.87,19.81,43.91,20,44.31Z"/><path class="cls-1" d="M45.53,25.88c.46.31.89.62,1.28.91l.6-1.26c-.27-.22-.73-.56-1.32-1Z"/><path class="cls-1" d="M22.42,35.66l.5-6.32h-.65l-.56-1.66h.95v-.26h.47l.35-1.85.33,1.85h.49v.26h.94l-.56,1.66H24l.12,6.32.18,1.09,4.66,0V26.46l-1.71-1.24A10.81,10.81,0,0,0,18,25a17.7,17.7,0,0,0-2.42,1.24L20.1,36.81h2Z"/><path class="cls-1" d="M21.47,40A9.29,9.29,0,0,1,29,41.93V38.44c-2.95,0-5.82-.17-8.37-.39C21.1,39.17,21.42,39.91,21.47,40Z"/><path class="cls-1" d="M12.51,25.53c.06.1.28.56.61,1.26.39-.29.82-.6,1.28-.91l-.56-1.3C13.25,25,12.79,25.31,12.51,25.53Z"/><path class="cls-1" d="M19.63,20a10.85,10.85,0,0,0-5.8,2.08l.45,1.07a15.69,15.69,0,0,1,4.63-1.93,11.06,11.06,0,0,1,9.22,2.28C25.64,20.35,21.84,19.94,19.63,20Z"/><path class="cls-1" d="M19.12,22.16a15.16,15.16,0,0,0-4.45,1.89c.17.4.35.84.56,1.32a17.38,17.38,0,0,1,2.44-1.23,11.81,11.81,0,0,1,9.75.05A10.16,10.16,0,0,0,19.12,22.16Z"/><path class="cls-1" d="M14.79,26.79c-.46.31-.87.61-1.24.9,1.1,2.3,2.88,6,4.37,9.12h1.13Z"/><path class="cls-1" d="M20.46,42.14A9.12,9.12,0,0,1,29,43.43v-.24a8.44,8.44,0,0,0-7.71-2.14l-.39.1L19.54,38l-1.13-.11Z"/><path class="cls-1" d="M39,41.15l-.4-.1a8.42,8.42,0,0,0-7.7,2.14v.24a9.11,9.11,0,0,1,8.54-1.29c.11-.25,1-2,2.07-4.33l-1.13.1Z"/><path class="cls-1" d="M42.31,34.17l.2,1.61,3.87-8.09c-.37-.29-.79-.59-1.24-.9l-2.88,6.77.05.36h-.2l-.11.25Z"/><path class="cls-1" d="M41,21.23a15.62,15.62,0,0,1,4.62,1.93l.46-1.07A10.88,10.88,0,0,0,40.3,20c-2.21-.07-6,.34-8.5,3.5A11.05,11.05,0,0,1,41,21.23Z"/><path class="cls-1" d="M40.21,45.76l-.44-.36c-3.34-2.67-9.08,0-9.13.06l-.66.31h0l-.66-.31c-.06,0-5.8-2.73-9.13-.06l-.45.36L15.2,37.47c-1.76-.22-3.08-.43-3.77-.55a19.52,19.52,0,0,0,36.79.1c-.68.1-1.9.27-3.49.45Z"/><path class="cls-1" d="M10.6,29.05l.24-.26a18.47,18.47,0,0,1,1.51-1.38l-1-2.15.29-.24a20.51,20.51,0,0,1,1.84-1.35l-.79-1.87.27-.23a11.59,11.59,0,0,1,6.67-2.52c2.73-.1,7.69.49,10.31,5.43l.06.1.05-.1c2.61-4.94,7.58-5.53,10.31-5.43A11.63,11.63,0,0,1,47,21.57l.27.23-.8,1.87A21.63,21.63,0,0,1,48.32,25l.29.24-1,2.15a18.47,18.47,0,0,1,1.51,1.38l.22.24a19.52,19.52,0,1,0-37.92,7.8h3.45Z"/><path class="cls-1" d="M48.25,36.93a19.51,19.51,0,0,0,1.12-6.5c0-.46,0-.91,0-1.36L45,36.9Z"/><path class="cls-1" d="M48.14,29.21c-.21-.21-.55-.52-1-.9l-4.1,8.58H44Z"/><path class="cls-1" d="M39.94,43.38l-.42-.19a7.92,7.92,0,0,0-7.7.77c2-.65,5.47-1.35,8.08.35.22-.4,1.89-3.45,3.66-6.71l-.9.1Z"/><path class="cls-1" d="M32.51,24.19a11.81,11.81,0,0,1,9.75-.05,17.38,17.38,0,0,1,2.44,1.23l.56-1.32a15.28,15.28,0,0,0-4.45-1.89A10.16,10.16,0,0,0,32.51,24.19Z"/><path class="cls-1" d="M40,32.41c0-.14-.16-.26-.36-.26s-.36.12-.36.26h0l.07,1.16h.8L40,32.42Z"/><path class="cls-1" d="M30.93,41.93A9.28,9.28,0,0,1,38.45,40c.06-.13.39-.89.87-2-2.56.2-5.44.37-8.39.42Z"/><path class="cls-1" d="M40.6,35,39,35l.11,1.85h.7Z"/><polygon class="cls-1" points="37.69 34.62 36.85 34.62 36.02 34.62 35.9 36.83 37.8 36.85 37.69 34.62"/><path class="cls-1" d="M31.38,34.17H41l.1-.25H31.4l.33-2.62H42l0,.38,2.31-5.41A17.83,17.83,0,0,0,41.89,25a10.8,10.8,0,0,0-9.26.19l-1.7,1.24V36.8h.14Zm8.34-5.89v.28h-.12v-.27ZM35.24,26.7h.12v.42l.38-.3V26.4h.11v.33L36.8,26v-.26h-.21v0h.21v-.28h.09v.28h.23v0h-.23V26l1,.74V26.4H38v.42l.38.3V26.7h.12v.48H35.24Zm-.1.7h3.42a1.43,1.43,0,0,0,.91,1.16H34.23A1.45,1.45,0,0,0,35.14,27.4ZM34,28.28h.12v.27H34Zm-2.06,1.23h0v-.07h0l0-.39h.12l0,.39h.57l0-.38h.12l0,.38h.12c1-.19,1.1-.52,1.09-.65h5.8c0,.13.06.46,1.09.65H41l0-.38H41l0,.38h.57l0-.39h.11l0,.39h0v.07h0L42,31.08H31.74l.19-1.57Z"/><polygon class="cls-1" points="34.7 35.01 33.08 34.99 32.91 36.81 34.59 36.83 34.7 35.01"/><path class="cls-1" d="M34,32.15c-.2,0-.36.12-.36.26h0l-.15,1.16h.8l.07-1.16h0C34.39,32.27,34.23,32.15,34,32.15Z"/><path class="cls-1" d="M37.38,32c0-.21-.23-.39-.52-.39h0a.47.47,0,0,0-.51.39h0l-.08,1.66h1.22L37.38,32Z"/><path class="cls-1" d="M37.3,29.27h0c0-.18-.2-.32-.44-.32h0c-.24,0-.42.14-.42.32h0l-.08,1.39h1Z"/><path class="cls-1" d="M49.33,29.05l0,0v0Z"/><polygon class="cls-1" points="24.96 27.89 21.99 27.89 22.16 28.4 24.8 28.4 24.96 27.89"/></g></g></svg>